<svg xmlns="http://www.w3.org/2000/svg" xmlns:xlink="http://www.w3.org/1999/xlink" viewBox="0 0 64 64"><defs><style>.cls-1{fill:#fe92ae;}.cls-2{fill:#9b93e4;}.cls-3{fill:url(#linear-gradient);}.cls-4{fill:#443e64;}.cls-5{fill:#fce191;}</style><linearGradient id="linear-gradient" x1="-0.25" y1="38" x2="65.33" y2="38" gradientUnits="userSpaceOnUse"><stop offset="0" stop-color="#524e7f"/><stop offset="1" stop-color="#9b93e4"/></linearGradient></defs><title>agile</title><g id="agile"><circle class="cls-1" cx="32" cy="30" r="10"/><circle class="cls-1" cx="32" cy="30" r="10"/><circle class="cls-1" cx="32" cy="30" r="10"/><path class="cls-2" d="M32,47H19.67A21.07,21.07,0,0,1,13,39l3-3.05A17,17,0,0,0,32,47Z"/><path class="cls-3" d="M55,30H53A21,21,0,0,1,32,51H5V47H32A17,17,0,0,0,49,30H47l1.84-2.3L51,25l1.82,2.27h0Z"/><path class="cls-4" d="M51,21l-3.05,3A17,17,0,0,0,15,30h2l-1.84,2.3L13,35l-1.82-2.27h0L9,30h2a21,21,0,0,1,40-9Z"/><line class="cls-2" x1="16.06" y1="35.94" x2="13.01" y2="38.99"/><path class="cls-2" d="M54,53V51H32a20.86,20.86,0,0,0,12.33-4H54V45l5,4Z"/><path class="cls-5" d="M30.5,34.5a1,1,0,0,1-.71-.29l-3.5-3.5a1,1,0,0,1,1.42-1.42l2.79,2.8,5.79-5.8a1,1,0,0,1,1.42,1.42l-6.5,6.5A1,1,0,0,1,30.5,34.5Z"/></g></svg>