<svg xmlns="http://www.w3.org/2000/svg" viewBox="0 0 64 64"><defs><style>.cls-1{fill:#9b93e4;}.cls-2{fill:#443e64;}.cls-3{fill:#fe92ae;}.cls-4{fill:#524e7f;}.cls-5{fill:#fce191;}</style></defs><title>challenge idea</title><g id="challenge_idea" data-name="challenge idea"><circle class="cls-1" cx="32" cy="32" r="27"/><path class="cls-2" d="M32,48a16.17,16.17,0,0,1-4.14-.54A15.54,15.54,0,0,1,24,45.85,16,16,0,0,1,36.14,16.54,15.54,15.54,0,0,1,40,18.15a16,16,0,0,1,7.46,9.71,1,1,0,1,1-1.94.52A13.84,13.84,0,0,0,44.13,25,14.07,14.07,0,0,0,39,19.88a13.49,13.49,0,0,0-3.38-1.4A14.08,14.08,0,0,0,25,19.87,14.07,14.07,0,0,0,19.88,25a13.49,13.49,0,0,0-1.4,3.38,13.89,13.89,0,0,0,0,7.24A13.49,13.49,0,0,0,19.88,39,14.15,14.15,0,0,0,25,44.13a14.08,14.08,0,0,0,14,0A14.25,14.25,0,0,0,44.13,39a13.84,13.84,0,0,0,1.39-3.38,1,1,0,1,1,1.94.52A15.9,15.9,0,0,1,45.86,40,16.14,16.14,0,0,1,40,45.86a15.9,15.9,0,0,1-3.86,1.6A16.17,16.17,0,0,1,32,48Z"/><path class="cls-2" d="M21.5,51.19a1,1,0,0,1-.5-.13,22,22,0,0,1-4.56-3.5,1,1,0,1,1,1.42-1.42A19.51,19.51,0,0,0,22,49.32a1,1,0,0,1-.5,1.87Z"/><path class="cls-2" d="M32,54a22.52,22.52,0,0,1-5.7-.74,1,1,0,0,1,.52-1.94A20.18,20.18,0,0,0,32,52a1,1,0,0,1,0,2Z"/><path class="cls-2" d="M53,33a1,1,0,0,1-1-1,20.18,20.18,0,0,0-.68-5.18,1,1,0,0,1,1.94-.52A22.52,22.52,0,0,1,54,32,1,1,0,0,1,53,33Z"/><path class="cls-2" d="M50.19,22.5a1,1,0,0,1-.87-.5,19.51,19.51,0,0,0-3.18-4.14,1,1,0,1,1,1.42-1.42A22,22,0,0,1,51.06,21a1,1,0,0,1-.87,1.5Z"/><path class="cls-2" d="M42.5,14.81a1,1,0,0,1-.5-.13,19.56,19.56,0,0,0-4.82-2,20.21,20.21,0,0,0-10.36,0,1,1,0,0,1-.52-1.94,22.47,22.47,0,0,1,11.4,0,22,22,0,0,1,5.3,2.2,1,1,0,0,1-.5,1.87Z"/><path class="cls-2" d="M46.85,47.85a1,1,0,0,1-.71-.29,1,1,0,0,1,0-1.42,20,20,0,0,0,5.18-9,1,1,0,1,1,1.94.52,22.05,22.05,0,0,1-5.7,9.86A1,1,0,0,1,46.85,47.85Z"/><path class="cls-2" d="M19,25.5a1,1,0,0,1-.87-1.5A16.14,16.14,0,0,1,24,18.14a1,1,0,1,1,1,1.74A14,14,0,0,0,19.88,25,1,1,0,0,1,19,25.5Z"/><path class="cls-2" d="M11.71,38.44a1,1,0,0,1-1-.74,22.32,22.32,0,0,1,0-11.4,22,22,0,0,1,2.2-5.3,1,1,0,0,1,1.37-.37A1,1,0,0,1,14.67,22a19.92,19.92,0,0,0-2,4.82,20.07,20.07,0,0,0,0,10.36A1,1,0,0,1,12,38.41Z"/><path class="cls-2" d="M5,33a1,1,0,0,1-1-1,28.07,28.07,0,0,1,1-7.25A27,27,0,0,1,7.76,18a27.66,27.66,0,0,1,4.44-5.8,1,1,0,0,1,1.42,1.42A25.26,25.26,0,0,0,9.49,19a25,25,0,0,0-2.6,6.27A25.86,25.86,0,0,0,6,32,1,1,0,0,1,5,33Z"/><path class="cls-2" d="M39,59.08a1,1,0,0,1-.25-2,25.8,25.8,0,0,0,11.64-6.73A25.26,25.26,0,0,0,54.51,45a25,25,0,0,0,2.6-6.27,25.89,25.89,0,0,0,0-13.46A25.29,25.29,0,0,0,54.52,19a25.64,25.64,0,0,0-4.14-5.38A1,1,0,0,1,51.8,12.2,28.05,28.05,0,0,1,56.25,18a27.35,27.35,0,0,1,2.8,6.75,28.14,28.14,0,0,1,0,14.5A27,27,0,0,1,56.24,46a27.66,27.66,0,0,1-4.44,5.8A28.05,28.05,0,0,1,46,56.25a27.35,27.35,0,0,1-6.75,2.8Z"/><path class="cls-2" d="M45.5,9.62a.9.9,0,0,1-.5-.14,25.38,25.38,0,0,0-6.26-2.59,26.07,26.07,0,0,0-13.47,0A25.29,25.29,0,0,0,19,9.48a1,1,0,0,1-1-1.72A27,27,0,0,1,24.75,5a28.28,28.28,0,0,1,14.5,0A27,27,0,0,1,46,7.76a1,1,0,0,1-.5,1.86Z"/><path class="cls-2" d="M32,60a28,28,0,0,1-7.25-1A27,27,0,0,1,18,56.24a27.66,27.66,0,0,1-5.8-4.44A28.05,28.05,0,0,1,7.75,46,27.35,27.35,0,0,1,5,39.25,1,1,0,0,1,5.66,38l4.85-1.29A22.24,22.24,0,0,1,10,32a1,1,0,0,1,2,0,20.18,20.18,0,0,0,.68,5.18A1,1,0,0,1,12,38.41L7.16,39.69A25.37,25.37,0,0,0,9.48,45a25.64,25.64,0,0,0,4.14,5.38,26,26,0,0,0,11.64,6.73A25.93,25.93,0,0,0,32,58a1,1,0,0,1,0,2Z"/><path class="cls-2" d="M32,60a1,1,0,0,1-1-1V53a1,1,0,0,1,2,0v6A1,1,0,0,1,32,60Z"/><path class="cls-2" d="M42.5,14.81a1,1,0,0,1-.87-1.5l3-5.19a1,1,0,0,1,1.74,1l-3,5.19A1,1,0,0,1,42.5,14.81Z"/><path class="cls-2" d="M21.5,14.81a1,1,0,0,1-.87-.5l-3-5.19a1,1,0,0,1,1.74-1l3,5.19a1,1,0,0,1-.87,1.5Z"/><path class="cls-2" d="M42.5,51.19a1,1,0,0,1-.87-.5l-3-5.2a1,1,0,1,1,1.74-1l3,5.2a1,1,0,0,1-.87,1.5Z"/><path class="cls-2" d="M13.81,43.5a1,1,0,0,1-.5-1.87l5.2-3a1,1,0,1,1,1,1.74l-5.2,3A1,1,0,0,1,13.81,43.5Z"/><path class="cls-2" d="M50.19,22.5a1,1,0,0,1-.5-1.87l5.19-3a1,1,0,1,1,1,1.74l-5.19,3A1,1,0,0,1,50.19,22.5Z"/><path class="cls-2" d="M28.12,18.51a1,1,0,0,1-1-.74L25.59,12a1,1,0,0,1,1.94-.52l1.56,5.8a1,1,0,0,1-.71,1.23A1.15,1.15,0,0,1,28.12,18.51Z"/><path class="cls-2" d="M39,59.08a1,1,0,0,1-1-.74l-1.55-5.79A1,1,0,0,1,38.41,52L40,57.82a1,1,0,0,1-.71,1.23A1.15,1.15,0,0,1,39,59.08Z"/><path class="cls-2" d="M5.92,40a1,1,0,0,1-1-.74A1,1,0,0,1,5.66,38l5.79-1.55A1,1,0,0,1,12,38.41L6.18,40Z"/><path class="cls-2" d="M46.49,29.12a1,1,0,0,1-1-.74,1,1,0,0,1,.71-1.23L52,25.59a1,1,0,1,1,.52,1.94l-5.8,1.56A1.15,1.15,0,0,1,46.49,29.12Z"/><path class="cls-2" d="M26.56,53.29a1.15,1.15,0,0,1-.26,0A1,1,0,0,1,25.59,52l1.56-5.8a1,1,0,0,1,1.94.52l-1.56,5.8A1,1,0,0,1,26.56,53.29Z"/><path class="cls-2" d="M21.39,22.39a1,1,0,0,1-.71-.29L12.2,13.62a1,1,0,0,1,1.42-1.42l8.48,8.48a1,1,0,0,1,0,1.42A1,1,0,0,1,21.39,22.39Z"/><path class="cls-2" d="M51.09,52.09a1,1,0,0,1-.71-.29l-4.24-4.24a1,1,0,0,1,1.42-1.42l4.24,4.24a1,1,0,0,1,0,1.42A1,1,0,0,1,51.09,52.09Z"/><path class="cls-2" d="M12.91,52.09a1,1,0,0,1-.71-.29,1,1,0,0,1,0-1.42l4.24-4.24a1,1,0,0,1,1.42,1.42L13.62,51.8A1,1,0,0,1,12.91,52.09Z"/><path class="cls-2" d="M42.61,22.39a1,1,0,0,1-.71-.29,1,1,0,0,1,0-1.42l4.24-4.24a1,1,0,1,1,1.42,1.42L43.32,22.1A1,1,0,0,1,42.61,22.39Z"/><path class="cls-3" d="M38,28a6,6,0,1,0-10.69,3.74A8.26,8.26,0,0,1,29,36.93V37h6v-.34a8.64,8.64,0,0,1,1.83-5.11A6,6,0,0,0,38,28Z"/><path class="cls-4" d="M29,37h6a0,0,0,0,1,0,0v1a3,3,0,0,1-3,3h0a3,3,0,0,1-3-3V37a0,0,0,0,1,0,0Z"/><rect class="cls-5" x="31" y="31" width="2" height="6"/><path class="cls-5" d="M33,32H31a1,1,0,0,1,0-2h2a1,1,0,0,1,0,2Z"/></g></svg>