<svg xmlns="http://www.w3.org/2000/svg" xmlns:xlink="http://www.w3.org/1999/xlink" viewBox="0 0 64 64"><defs><style>.cls-1{fill:url(#linear-gradient);}.cls-2{fill:#524e7f;}.cls-3{fill:#443e64;}.cls-4{fill:#9b93e4;}.cls-5{fill:#fce191;}.cls-6{fill:#fe92ae;}</style><linearGradient id="linear-gradient" x1="32" y1="54.38" x2="32" y2="16.87" gradientUnits="userSpaceOnUse"><stop offset="0" stop-color="#524e7f"/><stop offset="1" stop-color="#9b93e4"/></linearGradient></defs><title>cons pros</title><g id="cons_pros" data-name="cons pros"><path class="cls-1" d="M35,51l-3,5-3-5V16a1,1,0,0,1,1-1h4a1,1,0,0,1,1,1Z"/><path class="cls-2" d="M32,8h0a2,2,0,0,1,2,2v5a0,0,0,0,1,0,0H30a0,0,0,0,1,0,0V10a2,2,0,0,1,2-2Z"/><circle class="cls-3" cx="16" cy="17" r="8"/><circle class="cls-3" cx="48" cy="17" r="8"/><path class="cls-4" d="M9,32a2,2,0,1,1,2-2A2,2,0,0,1,9,32Zm0-2H9Zm0,0H9Zm0,0H9Zm0,0H9Zm0,0H9Zm0,0H9Zm0,0H9Zm0,0H9Z"/><path class="cls-5" d="M24,31H14a1,1,0,0,1,0-2H24a1,1,0,0,1,0,2Z"/><path class="cls-4" d="M9,39a2,2,0,1,1,2-2A2,2,0,0,1,9,39Zm0-2H9Zm0,0H9Zm0,0H9Zm0,0H9Zm0,0H9Zm0,0H9Zm0,0H9Zm0,0H9Z"/><path class="cls-5" d="M24,38H14a1,1,0,0,1,0-2H24a1,1,0,0,1,0,2Z"/><path class="cls-4" d="M9,46a2,2,0,1,1,2-2A2,2,0,0,1,9,46Zm0-2H9Zm0,0H9Zm0,0H9Zm0,0H9Zm0,0H9Zm0,0H9Zm0,0H9Zm0,0H9Z"/><path class="cls-5" d="M24,45H14a1,1,0,0,1,0-2H24a1,1,0,0,1,0,2Z"/><path class="cls-4" d="M9,53a2,2,0,1,1,2-2A2,2,0,0,1,9,53Zm0-2H9Zm0,0H9Zm0,0H9Zm0,0H9Zm0,0H9Zm0,0H9Zm0,0H9Zm0,0H9Z"/><path class="cls-5" d="M24,52H14a1,1,0,0,1,0-2H24a1,1,0,0,1,0,2Z"/><path class="cls-4" d="M41,32a2,2,0,1,1,2-2A2,2,0,0,1,41,32Zm0-2Z"/><path class="cls-6" d="M56,31H46a1,1,0,0,1,0-2H56a1,1,0,0,1,0,2Z"/><path class="cls-4" d="M41,39a2,2,0,1,1,2-2A2,2,0,0,1,41,39Zm0-2Z"/><path class="cls-6" d="M56,38H46a1,1,0,0,1,0-2H56a1,1,0,0,1,0,2Z"/><path class="cls-5" d="M19,18H13a1,1,0,0,1,0-2h6a1,1,0,0,1,0,2Z"/><path class="cls-6" d="M51,18H45a1,1,0,0,1,0-2h6a1,1,0,0,1,0,2Z"/><path class="cls-5" d="M16,21a1,1,0,0,1-1-1V14a1,1,0,0,1,2,0v6A1,1,0,0,1,16,21Z"/></g></svg>