<?xml version="1.0" encoding="UTF-8" standalone="no"?>
<!DOCTYPE svg PUBLIC "-//W3C//DTD SVG 1.1//EN" "http://www.w3.org/Graphics/SVG/1.1/DTD/svg11.dtd">
<svg width="100%" height="100%" viewBox="0 0 445 445" version="1.1" xmlns="http://www.w3.org/2000/svg" xmlns:xlink="http://www.w3.org/1999/xlink" xml:space="preserve" xmlns:serif="http://www.serif.com/" style="fill-rule:evenodd;clip-rule:evenodd;stroke-linejoin:round;stroke-miterlimit:2;">
    <g transform="matrix(1,0,0,1,-1011.62,-5145.83)">
        <g id="Reversed-Grayscale-Logo" serif:id="Reversed Grayscale Logo" transform="matrix(4.16667,0,0,4.16667,0,0)">
            <g transform="matrix(1,0,0,1,326.784,1235)">
                <path d="M0,9.741C-8.682,3.613 -19.265,0 -30.697,0C-42.131,0 -52.716,3.613 -61.396,9.741L0,9.741Z" style="fill:white;fill-rule:nonzero;"/>
            </g>
            <g transform="matrix(1,0,0,1,345.929,1341.6)">
                <path d="M0,-72.185L-59.746,-72.185L-59.746,-55.06L-11.712,-55.06L-11.712,-31.55L-59.746,-31.55L-59.746,-0.933C-56.535,-0.331 -53.229,0 -49.843,0C-20.407,0 3.454,-23.863 3.454,-53.298C3.454,-59.951 2.225,-66.313 0,-72.185" style="fill:white;fill-rule:nonzero;"/>
            </g>
            <g transform="matrix(1,0,0,1,258.028,1325.6)">
                <path d="M0,-74.602C-9.422,-64.989 -15.24,-51.828 -15.24,-37.301C-15.24,-22.776 -9.422,-9.615 0,0L0,-74.602Z" style="fill:white;fill-rule:nonzero;"/>
            </g>
        </g>
    </g>
</svg>
