<svg xmlns="http://www.w3.org/2000/svg" viewBox="0 0 64 64"><defs><style>.cls-1{fill:#443e64;}.cls-2{fill:#fe92ae;}.cls-3{fill:#524e7f;}.cls-4{fill:#9b93e4;}.cls-5{fill:#fce191;}</style></defs><title>milestone</title><g id="milestone"><path class="cls-1" d="M19,46a1,1,0,0,1-1-1V43H14v2a1,1,0,0,1-2,0V43a2,2,0,0,1,2-2h4a2,2,0,0,1,2,2v2A1,1,0,0,1,19,46Z"/><path class="cls-2" d="M53,20a1,1,0,0,1-1-1V8a1,1,0,0,1,2,0V19A1,1,0,0,1,53,20Z"/><path class="cls-3" d="M29,37H15a8,8,0,1,1,0-16h2a1,1,0,0,1,0,2H15a6,6,0,0,0-6,6,6,6,0,0,0,6,6H29a1,1,0,0,1,0,2Z"/><path class="cls-3" d="M41,51H29a1,1,0,0,1,0-2H41a1,1,0,0,1,0,2Z"/><path class="cls-3" d="M49,51H47a1,1,0,0,1,0-2h2a6,6,0,0,0,6-6,6,6,0,0,0-6-6H35a1,1,0,0,1,0-2H49a8,8,0,0,1,0,16Z"/><path class="cls-3" d="M50,23H23a1,1,0,0,1,0-2H50a1,1,0,0,1,0,2Z"/><rect class="cls-3" x="8" y="44" width="16" height="12" rx="3" ry="3"/><path class="cls-4" d="M24,47a3,3,0,0,1-3,3H11a3,3,0,0,1,0-6H21A3,3,0,0,1,24,47Z"/><path class="cls-5" d="M16,52a1,1,0,0,1-1-1V49a1,1,0,0,1,2,0v2A1,1,0,0,1,16,52Z"/><circle class="cls-5" cx="44" cy="50" r="3"/><circle class="cls-2" cx="32" cy="36" r="3"/><circle class="cls-5" cx="20" cy="22" r="3"/><circle class="cls-2" cx="53" cy="22" r="3"/><polygon class="cls-2" points="52 15 45 12 52 8 52 15"/></g></svg>