<svg xmlns="http://www.w3.org/2000/svg" xmlns:xlink="http://www.w3.org/1999/xlink" viewBox="0 0 64 64"><defs><style>.cls-1{fill:#fe92ae;}.cls-2{fill:#443e64;}.cls-3{fill:#9b93e4;}.cls-4{fill:#fce191;}.cls-5{fill:url(#linear-gradient);}.cls-6{fill:url(#linear-gradient-2);}</style><linearGradient id="linear-gradient" x1="27" y1="16" x2="37" y2="16" gradientUnits="userSpaceOnUse"><stop offset="0" stop-color="#524e7f"/><stop offset="1" stop-color="#9b93e4"/></linearGradient><linearGradient id="linear-gradient-2" y1="34" y2="34" xlink:href="#linear-gradient"/></defs><title>planning</title><g id="planning"><path class="cls-1" d="M47,33H44a1,1,0,0,1,0-2h3a8,8,0,0,0,0-16H40a1,1,0,0,1,0-2h7a10,10,0,0,1,0,20Z"/><path class="cls-1" d="M46.5,35.5a1,1,0,0,1-.71-.29l-2.5-2.5a1,1,0,0,1,0-1.42l2.5-2.5a1,1,0,0,1,1.42,1.42L45.41,32l1.8,1.79a1,1,0,0,1,0,1.42A1,1,0,0,1,46.5,35.5Z"/><path class="cls-1" d="M20,51H17a10,10,0,0,1,0-20h7a1,1,0,0,1,0,2H17a8,8,0,0,0,0,16h3a1,1,0,0,1,0,2Z"/><path class="cls-1" d="M17.5,53.5a1,1,0,0,1-.71-.29,1,1,0,0,1,0-1.42L18.59,50l-1.8-1.79a1,1,0,0,1,1.42-1.42l2.5,2.5a1,1,0,0,1,0,1.42l-2.5,2.5A1,1,0,0,1,17.5,53.5Z"/><rect class="cls-2" x="24" y="26" width="16" height="12" rx="2" ry="2"/><rect class="cls-2" x="24" y="44" width="16" height="12" rx="2" ry="2"/><rect class="cls-2" x="24" y="8" width="16" height="12" rx="2" ry="2"/><path class="cls-3" d="M36,13H32a1,1,0,0,1,0-2h4a1,1,0,0,1,0,2Z"/><circle class="cls-3" cx="28" cy="12" r="1"/><path class="cls-3" d="M36,31H32a1,1,0,0,1,0-2h4a1,1,0,0,1,0,2Z"/><circle class="cls-3" cx="28" cy="30" r="1"/><path class="cls-4" d="M31,53.25a1,1,0,0,1-.71-.29l-2.5-2.5A1,1,0,0,1,29.21,49L31,50.84,34.79,47a1,1,0,0,1,1.42,1.42L31.71,53A1,1,0,0,1,31,53.25Z"/><path class="cls-1" d="M17.5,17.5a1,1,0,0,1-.71-.29,1,1,0,0,1,0-1.42L18.59,14l-1.8-1.79a1,1,0,0,1,1.42-1.42l2.5,2.5a1,1,0,0,1,0,1.42l-2.5,2.5A1,1,0,0,1,17.5,17.5Z"/><path class="cls-1" d="M20,15H8a1,1,0,0,1,0-2H20a1,1,0,0,1,0,2Z"/><path class="cls-5" d="M36,17H28a1,1,0,0,1,0-2h8a1,1,0,0,1,0,2Z"/><path class="cls-6" d="M36,35H28a1,1,0,0,1,0-2h8a1,1,0,0,1,0,2Z"/></g></svg>