<svg xmlns="http://www.w3.org/2000/svg" xmlns:xlink="http://www.w3.org/1999/xlink" viewBox="0 0 64 64"><defs><style>.cls-1{fill:#524e7f;}.cls-2{fill:#9b93e4;}.cls-3{fill:url(#linear-gradient);}.cls-4{fill:#443e64;}.cls-5{fill:#fe92ae;}.cls-6{fill:#fce191;}</style><linearGradient id="linear-gradient" x1="32" y1="44.42" x2="32" y2="19.5" gradientUnits="userSpaceOnUse"><stop offset="0" stop-color="#524e7f"/><stop offset="1" stop-color="#9b93e4"/></linearGradient></defs><title>priority project</title><g id="priority_project" data-name="priority project"><path class="cls-1" d="M56,30V56H36V41h6V30a4,4,0,0,0,8,0Z"/><path class="cls-2" d="M51,41H42a1,1,0,0,1,0-2h9a1,1,0,0,1,0,2Z"/><path class="cls-2" d="M51,46H41a1,1,0,0,1,0-2H51a1,1,0,0,1,0,2Z"/><path class="cls-2" d="M51,51H41a1,1,0,0,1,0-2H51a1,1,0,0,1,0,2Z"/><polygon class="cls-3" points="42 15 42 41 28 41 28 30 22 30 22 20 27 15 29.2 15 28.91 17.36 32 16 35.09 17.36 34.8 15 42 15"/><path class="cls-4" d="M37,26H27a1,1,0,0,1,0-2H37a1,1,0,0,1,0,2Z"/><path class="cls-4" d="M37,31H27a1,1,0,0,1,0-2H37a1,1,0,0,1,0,2Z"/><path class="cls-4" d="M37,36H28a1,1,0,0,1,0-2h9a1,1,0,0,1,0,2Z"/><path class="cls-1" d="M28,30V56H8V35l5-5h1a4,4,0,0,0,8,0Z"/><path class="cls-2" d="M23,41H13a1,1,0,0,1,0-2H23a1,1,0,0,1,0,2Z"/><path class="cls-2" d="M23,46H13a1,1,0,0,1,0-2H23a1,1,0,0,1,0,2Z"/><path class="cls-2" d="M23,51H13a1,1,0,0,1,0-2H23a1,1,0,0,1,0,2Z"/><circle class="cls-5" cx="18" cy="30" r="4"/><path class="cls-6" d="M18.5,28l.5,3a1,1,0,0,1-.83,1.17A1,1,0,0,1,17,31.33.92.92,0,0,1,17,31l.5-3a.51.51,0,0,1,1,0Z"/><circle class="cls-5" cx="46" cy="30" r="4"/><path class="cls-6" d="M46.5,28l.5,3a1,1,0,0,1-.83,1.17A1,1,0,0,1,45,31.33.92.92,0,0,1,45,31l.5-3a.51.51,0,0,1,1,0Z"/><polygon class="cls-6" points="34.8 15 35.09 17.36 32 16 28.91 17.36 29.2 15 29.31 14.12 27 11.73 30.34 11.09 32 8.25 33.66 11.09 37 11.73 34.69 14.12 34.8 15"/></g></svg>