<svg xmlns="http://www.w3.org/2000/svg" viewBox="0 0 64 64"><defs><style>.cls-1{fill:#524e7f;}.cls-2{fill:#9b93e4;}.cls-3{fill:#443e64;}.cls-4{fill:#fe92ae;}.cls-5{fill:#fce191;}</style></defs><title>strategy presentation</title><g id="strategy_presentation" data-name="strategy presentation"><path class="cls-1" d="M35,14a1,1,0,0,1-1-1V11a2,2,0,0,0-4,0v2a1,1,0,0,1-2,0V11a4,4,0,0,1,8,0v2A1,1,0,0,1,35,14Z"/><path class="cls-2" d="M32,57a3,3,0,1,1,3-3A3,3,0,0,1,32,57Zm0-4a1,1,0,1,0,1,1A1,1,0,0,0,32,53Z"/><path class="cls-2" d="M32,53a1,1,0,0,1-1-1V48a1,1,0,0,1,2,0v4A1,1,0,0,1,32,53Z"/><rect class="cls-2" x="8" y="13" width="48" height="5" rx="2.5" ry="2.5"/><path class="cls-3" d="M51,48H13a2,2,0,0,1-2-2V18H53V46A2,2,0,0,1,51,48Z"/><path class="cls-4" d="M19,31a1,1,0,0,1-.71-.29,1,1,0,0,1,0-1.42l6-6a1,1,0,0,1,1.42,1.42l-6,6A1,1,0,0,1,19,31Z"/><path class="cls-4" d="M25,31a1,1,0,0,1-.71-.29l-6-6a1,1,0,0,1,1.42-1.42l6,6a1,1,0,0,1,0,1.42A1,1,0,0,1,25,31Z"/><path class="cls-4" d="M40,44a1,1,0,0,1-.71-.29,1,1,0,0,1,0-1.42l6-6a1,1,0,0,1,1.42,1.42l-6,6A1,1,0,0,1,40,44Z"/><path class="cls-4" d="M46,44a1,1,0,0,1-.71-.29l-6-6a1,1,0,0,1,1.42-1.42l6,6a1,1,0,0,1,0,1.42A1,1,0,0,1,46,44Z"/><path class="cls-5" d="M41,30a4,4,0,1,1,4-4A4,4,0,0,1,41,30Zm0-6a2,2,0,1,0,2,2A2,2,0,0,0,41,24Z"/><path class="cls-5" d="M16,42a1,1,0,0,1,0-2,20.62,20.62,0,0,0,14.66-6.07l3.63-3.64a1,1,0,0,1,1.42,1.42l-3.64,3.63A22.55,22.55,0,0,1,16,42Z"/><path class="cls-5" d="M35,36a1,1,0,0,1-1-1V32H31a1,1,0,0,1,0-2h4a1,1,0,0,1,1,1v4A1,1,0,0,1,35,36Z"/></g></svg>